<svg width="64" height="64" viewBox="0 0 122 141" fill="none" xmlns="http://www.w3.org/2000/svg">
    <path d="M54.177 2.427a13.649 13.649 0 0113.65 0l47.349 27.338A13.648 13.648 0 01122 41.585V96.26c0 4.876-2.601 9.382-6.824 11.82l-47.35 27.337a13.645 13.645 0 01-13.649 0L6.827 108.08A13.649 13.649 0 01.003 96.26V41.585c0-4.877 2.601-9.382 6.824-11.82l47.35-27.338z"
          fill="url(#paint0_linear_1978_91007)"/>
    <path d="M55.888 7.993a10.237 10.237 0 0110.236 0l45.088 26.031a10.237 10.237 0 015.118 8.865v52.063c0 3.658-1.951 7.037-5.118 8.866l-45.088 26.031a10.235 10.235 0 01-10.236 0L10.8 103.818a10.238 10.238 0 01-5.118-8.866V42.89c0-3.657 1.95-7.036 5.118-8.865L55.888 7.993z"
          fill="#382673"/>
    <path d="M88.144 71.997C70.535 65.54 53.161 58.027 36.14 49.34c-10.213 27-15.848 56.231-16.082 86.518 9.508-4.578 19.135-8.804 28.878-12.561 9.04 6.457 18.43 12.209 27.822 17.022-.235-24.065 3.757-47.191 11.387-68.322z"
          fill="#D44A90"/>
    <path d="M25.46 86.086c.823.704 1.762 1.29 2.818 1.526 3.757.939 6.457 5.047 6.574 9.978.353 7.513 6.81 11.739 11.857 8.217 3.404-2.23 7.513-1.173 10.096 2.114 3.991 5.165 11.035 3.639 13.382-2.114 1.644-3.756 5.518-5.634 9.157-4.695.235.117.47.117.704.117a186.338 186.338 0 017.983-29.348c-17.609-6.456-34.983-13.97-52.005-22.657-4.343 11.975-7.982 24.183-10.565 36.862z"
          fill="#A72973"/>
    <path d="M83.804 70.354c-14.674-5.517-29.113-11.856-43.318-18.9-9.626 25.592-15.143 53.413-15.613 82.175 7.983-3.64 15.965-7.161 24.065-10.331 7.514 5.4 15.261 10.213 23.127 14.557 0-23.831 4.108-46.605 11.739-67.5z"
          fill="url(#paint1_linear_1978_91007)"/>
    <path d="M34.838 97.59c.352 7.512 6.691 10.33 11.856 6.808 3.405-2.231 7.514-1.174 10.096 2.23 3.874 5.166 11.152 5.048 13.5-.821 1.057-2.348 2.935-3.992 5.166-4.696a202.303 202.303 0 018.334-30.874c-14.674-5.4-29.113-11.74-43.317-18.783C36.012 63.311 32.49 75.52 29.79 88.198c2.935 1.643 4.93 5.165 5.048 9.391z"
          fill="#D44A90"/>
    <path d="M73.356 28.21c5.165-2.7 11.505.939 11.74 6.808.234 3.874 3.052 6.926 6.808 7.513 5.752.94 8.687 7.513 5.517 12.444-2.113 3.17-1.643 7.396 1.057 10.096 4.109 4.108 2.7 11.152-2.817 13.265-3.522 1.409-5.635 5.048-5.048 8.804.939 5.752-4.461 10.566-10.096 9.157-3.757-.94-7.63.704-9.274 4.226-2.7 5.283-9.86 5.987-13.5 1.409-2.465-2.935-6.574-3.874-9.978-2.113-5.166 2.7-11.505-.94-11.74-6.81-.234-3.873-3.052-6.925-6.808-7.512-5.752-.94-8.687-7.513-5.518-12.444 2.113-3.17 1.644-7.395-1.056-10.095-4.109-4.11-2.7-11.153 2.817-13.266 3.522-1.409 5.635-5.048 5.048-8.804-.94-5.752 4.46-10.565 10.096-9.157 3.756.94 7.63-.704 9.274-4.226 2.7-5.283 9.86-5.987 13.5-1.409 2.348 2.935 6.574 3.757 9.978 2.113z"
          fill="url(#paint2_linear_1978_91007)"/>
    <path d="M88.173 69.783c3.2-15.227-6.55-30.166-21.777-33.367-15.227-3.2-30.166 6.55-33.366 21.777-3.201 15.227 6.549 30.166 21.776 33.366 15.227 3.2 30.166-6.549 33.367-21.776z"
          fill="#00A58C"/>
    <path d="M33.674 60.724c3.17-15.26 18.078-25.004 33.34-21.835 10.33 2.23 18.195 9.744 21.13 19.135-2.23-10.565-10.565-19.37-21.718-21.717-15.26-3.17-30.287 6.691-33.456 21.835-1.057 4.93-.705 9.743.704 14.204-.822-3.756-.822-7.63 0-11.622z"
          fill="#037C68"/>
    <path d="M54.766 66.177l-4.41-6.691c-.27-.44-.81-.529-1.26-.264l-4.051 2.553c-.45.264-.54.792-.27 1.232l8.1 12.062c.27.44.81.528 1.26.264L78.6 59.793c.45-.263.54-.791.27-1.232L76.26 54.6c-.27-.44-.81-.528-1.26-.264L56.026 66.353c-.45.352-.99.176-1.26-.176z"
          fill="#fff"/>
    <path d="M102.131 88.506l.705-1.761c.234-.47.939-.47 1.056 0l.705 1.76a5.558 5.558 0 003.052 3.053l1.761.704c.469.235.469.94 0 1.057l-1.879.587a5.564 5.564 0 00-3.052 3.052l-.704 1.761c-.235.47-.939.47-1.057 0l-.704-1.76a5.564 5.564 0 00-3.052-3.053l-1.761-.704c-.47-.235-.47-.94 0-1.057l1.76-.704c1.527-.47 2.583-1.644 3.17-2.935zM14.78 41.346l-.536 1.365c-.447 1.001-1.25 1.911-2.412 2.275l-1.34.546c-.358.091-.358.637 0 .82l1.34.545a4.273 4.273 0 012.323 2.366l.536 1.365c.09.364.625.364.804 0l.536-1.365a4.273 4.273 0 012.323-2.366l1.43-.455c.357-.09.357-.637 0-.819l-1.34-.546a4.273 4.273 0 01-2.323-2.366l-.536-1.365c-.09-.364-.626-.364-.805 0z"
          fill="#FFDE39"/>
    <path d="M15.846 88.361a2.348 2.348 0 100-4.696 2.348 2.348 0 000 4.696zm91.726-42.592a2.348 2.348 0 100-4.696 2.348 2.348 0 000 4.696z"
          fill="#fff"/>
    <defs>
        <linearGradient id="paint0_linear_1978_91007" x1="2.851" y1="33.705" x2="122.427" y2="105.778"
                        gradientUnits="userSpaceOnUse">
            <stop stop-color="#E7C51E"/>
            <stop offset=".195" stop-color="#FFEFC6"/>
            <stop offset=".329" stop-color="#FFDE39"/>
            <stop offset=".566" stop-color="#FFEFC6"/>
            <stop offset=".719" stop-color="#FFD489"/>
            <stop offset="1" stop-color="#FFB039"/>
        </linearGradient>
        <linearGradient id="paint1_linear_1978_91007" x1="54.339" y1="51.454" x2="54.339" y2="137.855"
                        gradientUnits="userSpaceOnUse">
            <stop stop-color="#FF4E9D"/>
            <stop offset="1" stop-color="#F15A9E"/>
        </linearGradient>
        <linearGradient id="paint2_linear_1978_91007" x1="60.56" y1="23.061" x2="60.56" y2="104.968"
                        gradientUnits="userSpaceOnUse">
            <stop stop-color="#00FFDE"/>
            <stop offset="1" stop-color="#00D6AF"/>
        </linearGradient>
    </defs>
</svg>